STARTFONT 2.1
FONT pelm.latineur.8
SIZE 14 72 72
FONTBOUNDINGBOX 8 14 0 -3
STARTPROPERTIES 4
FONT_DESCENT 3
FONT_ASCENT 11
DEFAULT_CHAR 0
COPYRIGHT "Copyright (C) 1985 Bigelow & Holmes Inc. All rights reserved."
ENDPROPERTIES
CHARS 127
STARTCHAR ch-0
ENCODING 0
SWIDTH 571 0
DWIDTH 8 0
BBX 8 14 0 -3
BITMAP
3c
3c
00
18
18
2c
2c
7e
46
46
46
00
00
00
ENDCHAR
STARTCHAR ch-1
ENCODING 1
SWIDTH 571 0
DWIDTH 8 0
BBX 8 14 0 -3
BITMAP
3c
3c
00
00
3c
66
06
3e
66
6e
36
00
00
00
ENDCHAR
STARTCHAR ch-2
ENCODING 2
SWIDTH 571 0
DWIDTH 8 0
BBX 8 14 0 -3
BITMAP
66
3c
00
18
18
2c
2c
7e
46
46
46
00
00
00
ENDCHAR
STARTCHAR ch-3
ENCODING 3
SWIDTH 571 0
DWIDTH 8 0
BBX 8 14 0 -3
BITMAP
66
3c
00
00
3c
66
06
3e
66
6e
36
00
00
00
ENDCHAR
STARTCHAR ch-4
ENCODING 4
SWIDTH 571 0
DWIDTH 8 0
BBX 8 14 0 -3
BITMAP
00
00
18
18
2c
2c
2c
7e
46
46
46
04
05
06
ENDCHAR
STARTCHAR ch-5
ENCODING 5
SWIDTH 571 0
DWIDTH 8 0
BBX 8 14 0 -3
BITMAP
00
00
00
00
3c
66
06
3e
66
6e
36
04
05
06
ENDCHAR
STARTCHAR ch-6
ENCODING 6
SWIDTH 571 0
DWIDTH 8 0
BBX 8 14 0 -3
BITMAP
06
0c
00
1e
32
60
60
60
60
32
1e
00
00
00
ENDCHAR
STARTCHAR ch-7
ENCODING 7
SWIDTH 571 0
DWIDTH 8 0
BBX 8 14 0 -3
BITMAP
0c
18
00
00
3c
66
60
60
60
66
3c
00
00
00
ENDCHAR
STARTCHAR ch-8
ENCODING 8
SWIDTH 571 0
DWIDTH 8 0
BBX 8 14 0 -3
BITMAP
0c
12
00
1e
32
60
60
60
60
32
1e
00
00
00
ENDCHAR
STARTCHAR ch-9
ENCODING 9
SWIDTH 571 0
DWIDTH 8 0
BBX 8 14 0 -3
BITMAP
18
24
00
00
3c
66
60
60
60
66
3c
00
00
00
ENDCHAR
STARTCHAR ch-10
ENCODING 10
SWIDTH 571 0
DWIDTH 8 0
BBX 8 14 0 -3
BITMAP
0c
0c
00
1e
32
60
60
60
60
32
1e
00
00
00
ENDCHAR
STARTCHAR ch-11
ENCODING 11
SWIDTH 571 0
DWIDTH 8 0
BBX 8 14 0 -3
BITMAP
18
18
00
00
3c
66
60
60
60
66
3c
00
00
00
ENDCHAR
STARTCHAR ch-12
ENCODING 12
SWIDTH 571 0
DWIDTH 8 0
BBX 8 14 0 -3
BITMAP
14
08
00
1e
32
60
60
60
60
32
1e
00
00
00
ENDCHAR
STARTCHAR ch-13
ENCODING 13
SWIDTH 571 0
DWIDTH 8 0
BBX 8 14 0 -3
BITMAP
28
10
00
00
3c
66
60
60
60
66
3c
00
00
00
ENDCHAR
STARTCHAR ch-14
ENCODING 14
SWIDTH 571 0
DWIDTH 8 0
BBX 8 14 0 -3
BITMAP
28
10
00
78
6c
66
66
66
66
6c
78
00
00
00
ENDCHAR
STARTCHAR ch-15
ENCODING 15
SWIDTH 571 0
DWIDTH 8 0
BBX 8 14 0 -3
BITMAP
0a
04
00
06
06
06
3e
66
66
6e
36
00
00
00
ENDCHAR
STARTCHAR ch-16
ENCODING 16
SWIDTH 571 0
DWIDTH 8 0
BBX 8 14 0 -3
BITMAP
00
00
78
6c
66
66
f6
66
66
6c
78
00
00
00
ENDCHAR
STARTCHAR ch-17
ENCODING 17
SWIDTH 571 0
DWIDTH 8 0
BBX 8 14 0 -3
BITMAP
00
06
1f
06
3e
66
66
66
66
6e
36
00
00
00
ENDCHAR
STARTCHAR ch-18
ENCODING 18
SWIDTH 571 0
DWIDTH 8 0
BBX 8 14 0 -3
BITMAP
3c
3c
00
7e
60
60
7c
60
60
60
7e
00
00
00
ENDCHAR
STARTCHAR ch-19
ENCODING 19
SWIDTH 571 0
DWIDTH 8 0
BBX 8 14 0 -3
BITMAP
3c
3c
00
00
3c
66
66
7e
60
66
3c
00
00
00
ENDCHAR
STARTCHAR ch-20
ENCODING 20
SWIDTH 571 0
DWIDTH 8 0
BBX 8 14 0 -3
BITMAP
66
3c
00
7e
60
60
7c
60
60
60
7e
00
00
00
ENDCHAR
STARTCHAR ch-21
ENCODING 21
SWIDTH 571 0
DWIDTH 8 0
BBX 8 14 0 -3
BITMAP
66
3c
00
00
3c
66
66
7e
60
66
3c
00
00
00
ENDCHAR
STARTCHAR ch-22
ENCODING 22
SWIDTH 571 0
DWIDTH 8 0
BBX 8 14 0 -3
BITMAP
18
18
00
7e
60
60
7c
60
60
60
7e
00
00
00
ENDCHAR
STARTCHAR ch-23
ENCODING 23
SWIDTH 571 0
DWIDTH 8 0
BBX 8 14 0 -3
BITMAP
18
18
00
00
3c
66
66
7e
60
66
3c
00
00
00
ENDCHAR
STARTCHAR ch-24
ENCODING 24
SWIDTH 571 0
DWIDTH 8 0
BBX 8 14 0 -3
BITMAP
00
00
7e
60
60
60
7c
60
60
60
7e
04
05
06
ENDCHAR
STARTCHAR ch-25
ENCODING 25
SWIDTH 571 0
DWIDTH 8 0
BBX 8 14 0 -3
BITMAP
00
00
00
00
3c
66
66
7e
60
66
3c
04
05
06
ENDCHAR
STARTCHAR ch-26
ENCODING 26
SWIDTH 571 0
DWIDTH 8 0
BBX 8 14 0 -3
BITMAP
14
08
00
7e
60
60
7c
60
60
60
7e
00
00
00
ENDCHAR
STARTCHAR ch-27
ENCODING 27
SWIDTH 571 0
DWIDTH 8 0
BBX 8 14 0 -3
BITMAP
28
10
00
00
3c
66
66
7e
60
66
3c
00
00
00
ENDCHAR
STARTCHAR ch-28
ENCODING 28
SWIDTH 571 0
DWIDTH 8 0
BBX 8 14 0 -3
BITMAP
0c
12
00
1e
32
60
6e
66
66
36
1e
00
00
00
ENDCHAR
STARTCHAR ch-29
ENCODING 29
SWIDTH 571 0
DWIDTH 8 0
BBX 8 14 0 -3
BITMAP
18
24
00
00
3e
66
66
66
66
6e
36
06
66
3c
ENDCHAR
STARTCHAR ch-30
ENCODING 30
SWIDTH 571 0
DWIDTH 8 0
BBX 8 14 0 -3
BITMAP
66
3c
00
1e
32
60
6e
66
66
36
1e
00
00
00
ENDCHAR
STARTCHAR ch-31
ENCODING 31
SWIDTH 571 0
DWIDTH 8 0
BBX 8 14 0 -3
BITMAP
66
3c
00
00
3e
66
66
66
66
6e
36
06
66
3c
ENDCHAR
STARTCHAR ch-32
ENCODING 32
SWIDTH 571 0
DWIDTH 8 0
BBX 8 14 0 -3
BITMAP
0c
0c
00
1e
32
60
6e
66
66
36
1e
00
00
00
ENDCHAR
STARTCHAR ch-33
ENCODING 33
SWIDTH 571 0
DWIDTH 8 0
BBX 8 14 0 -3
BITMAP
18
18
00
00
3e
66
66
66
66
6e
36
06
66
3c
ENDCHAR
STARTCHAR ch-34
ENCODING 34
SWIDTH 571 0
DWIDTH 8 0
BBX 8 14 0 -3
BITMAP
00
00
1e
32
60
60
6e
66
66
36
1e
04
14
1c
ENDCHAR
STARTCHAR ch-35
ENCODING 35
SWIDTH 571 0
DWIDTH 8 0
BBX 8 14 0 -3
BITMAP
0c
18
00
00
3e
66
66
66
66
6e
36
06
66
3c
ENDCHAR
STARTCHAR ch-36
ENCODING 36
SWIDTH 571 0
DWIDTH 8 0
BBX 8 14 0 -3
BITMAP
10
28
00
66
66
66
7e
66
66
66
66
00
00
00
ENDCHAR
STARTCHAR ch-37
ENCODING 37
SWIDTH 571 0
DWIDTH 8 0
BBX 8 14 0 -3
BITMAP
20
50
00
60
60
60
6c
76
66
66
66
00
00
00
ENDCHAR
STARTCHAR ch-38
ENCODING 38
SWIDTH 571 0
DWIDTH 8 0
BBX 8 14 0 -3
BITMAP
00
00
66
66
ff
66
7e
66
66
66
66
00
00
00
ENDCHAR
STARTCHAR ch-39
ENCODING 39
SWIDTH 571 0
DWIDTH 8 0
BBX 8 14 0 -3
BITMAP
00
60
f8
60
6c
76
66
66
66
66
66
00
00
00
ENDCHAR
STARTCHAR ch-40
ENCODING 40
SWIDTH 571 0
DWIDTH 8 0
BBX 8 14 0 -3
BITMAP
32
4c
00
3c
18
18
18
18
18
18
3c
00
00
00
ENDCHAR
STARTCHAR ch-41
ENCODING 41
SWIDTH 571 0
DWIDTH 8 0
BBX 8 14 0 -3
BITMAP
32
4c
00
00
78
18
18
18
18
18
7e
00
00
00
ENDCHAR
STARTCHAR ch-42
ENCODING 42
SWIDTH 571 0
DWIDTH 8 0
BBX 8 14 0 -3
BITMAP
3c
3c
00
3c
18
18
18
18
18
18
3c
00
00
00
ENDCHAR
STARTCHAR ch-43
ENCODING 43
SWIDTH 571 0
DWIDTH 8 0
BBX 8 14 0 -3
BITMAP
3c
3c
00
00
78
18
18
18
18
18
7e
00
00
00
ENDCHAR
STARTCHAR ch-44
ENCODING 44
SWIDTH 571 0
DWIDTH 8 0
BBX 8 14 0 -3
BITMAP
66
3c
00
3c
18
18
18
18
18
18
3c
00
00
00
ENDCHAR
STARTCHAR ch-45
ENCODING 45
SWIDTH 571 0
DWIDTH 8 0
BBX 8 14 0 -3
BITMAP
66
3c
00
00
78
18
18
18
18
18
7e
00
00
00
ENDCHAR
STARTCHAR ch-46
ENCODING 46
SWIDTH 571 0
DWIDTH 8 0
BBX 8 14 0 -3
BITMAP
00
00
3c
18
18
18
18
18
18
18
3c
08
0a
0c
ENDCHAR
STARTCHAR ch-47
ENCODING 47
SWIDTH 571 0
DWIDTH 8 0
BBX 8 14 0 -3
BITMAP
00
18
18
00
78
18
18
18
18
18
7e
08
0a
0c
ENDCHAR
STARTCHAR ch-48
ENCODING 48
SWIDTH 571 0
DWIDTH 8 0
BBX 8 14 0 -3
BITMAP
18
18
00
3c
18
18
18
18
18
18
3c
00
00
00
ENDCHAR
STARTCHAR ch-49
ENCODING 49
SWIDTH 571 0
DWIDTH 8 0
BBX 8 14 0 -3
BITMAP
00
00
00
00
78
18
18
18
18
18
7e
00
00
00
ENDCHAR
STARTCHAR ch-50
ENCODING 50
SWIDTH 571 0
DWIDTH 8 0
BBX 8 14 0 -3
BITMAP
00
00
f7
66
66
66
66
66
66
66
e6
06
1c
00
ENDCHAR
STARTCHAR ch-51
ENCODING 51
SWIDTH 571 0
DWIDTH 8 0
BBX 8 14 0 -3
BITMAP
00
66
66
00
f6
66
66
66
66
66
e6
06
06
1c
ENDCHAR
STARTCHAR ch-52
ENCODING 52
SWIDTH 571 0
DWIDTH 8 0
BBX 8 14 0 -3
BITMAP
10
28
00
7c
18
18
18
18
18
18
18
18
70
00
ENDCHAR
STARTCHAR ch-53
ENCODING 53
SWIDTH 571 0
DWIDTH 8 0
BBX 8 14 0 -3
BITMAP
10
28
00
00
78
18
18
18
18
18
18
18
18
70
ENDCHAR
STARTCHAR ch-54
ENCODING 54
SWIDTH 571 0
DWIDTH 8 0
BBX 8 14 0 -3
BITMAP
00
00
66
64
6c
68
78
6c
6c
66
66
08
28
38
ENDCHAR
STARTCHAR ch-55
ENCODING 55
SWIDTH 571 0
DWIDTH 8 0
BBX 8 14 0 -3
BITMAP
00
60
60
60
66
64
68
78
6c
66
66
08
28
38
ENDCHAR
STARTCHAR ch-56
ENCODING 56
SWIDTH 571 0
DWIDTH 8 0
BBX 8 14 0 -3
BITMAP
00
00
00
00
66
66
68
78
68
6e
66
00
00
00
ENDCHAR
STARTCHAR ch-57
ENCODING 57
SWIDTH 571 0
DWIDTH 8 0
BBX 8 14 0 -3
BITMAP
30
60
00
60
60
60
60
60
60
60
7e
00
00
00
ENDCHAR
STARTCHAR ch-58
ENCODING 58
SWIDTH 571 0
DWIDTH 8 0
BBX 8 14 0 -3
BITMAP
18
30
78
18
18
18
18
18
18
18
7e
00
00
00
ENDCHAR
STARTCHAR ch-59
ENCODING 59
SWIDTH 571 0
DWIDTH 8 0
BBX 8 14 0 -3
BITMAP
00
00
60
60
60
60
60
60
60
60
7e
08
28
38
ENDCHAR
STARTCHAR ch-60
ENCODING 60
SWIDTH 571 0
DWIDTH 8 0
BBX 8 14 0 -3
BITMAP
00
78
18
18
18
18
18
18
18
18
7e
08
28
38
ENDCHAR
STARTCHAR ch-61
ENCODING 61
SWIDTH 571 0
DWIDTH 8 0
BBX 8 14 0 -3
BITMAP
50
20
00
60
60
60
60
60
60
60
7e
00
00
00
ENDCHAR
STARTCHAR ch-62
ENCODING 62
SWIDTH 571 0
DWIDTH 8 0
BBX 8 14 0 -3
BITMAP
28
10
78
18
18
18
18
18
18
18
7e
00
00
00
ENDCHAR
STARTCHAR ch-63
ENCODING 63
SWIDTH 571 0
DWIDTH 8 0
BBX 8 14 0 -3
BITMAP
00
00
60
60
66
66
60
60
60
60
7e
00
00
00
ENDCHAR
STARTCHAR ch-64
ENCODING 64
SWIDTH 571 0
DWIDTH 8 0
BBX 8 14 0 -3
BITMAP
00
78
18
18
1b
1b
18
18
18
18
7e
00
00
00
ENDCHAR
STARTCHAR ch-65
ENCODING 65
SWIDTH 571 0
DWIDTH 8 0
BBX 8 14 0 -3
BITMAP
00
00
60
60
60
60
60
78
e0
60
7e
00
00
00
ENDCHAR
STARTCHAR ch-66
ENCODING 66
SWIDTH 571 0
DWIDTH 8 0
BBX 8 14 0 -3
BITMAP
00
78
18
18
18
1a
3c
58
18
18
7e
00
00
00
ENDCHAR
STARTCHAR ch-67
ENCODING 67
SWIDTH 571 0
DWIDTH 8 0
BBX 8 14 0 -3
BITMAP
0c
18
00
62
72
72
5a
5a
4e
4e
46
00
00
00
ENDCHAR
STARTCHAR ch-68
ENCODING 68
SWIDTH 571 0
DWIDTH 8 0
BBX 8 14 0 -3
BITMAP
0c
18
00
00
6c
76
66
66
66
66
66
00
00
00
ENDCHAR
STARTCHAR ch-69
ENCODING 69
SWIDTH 571 0
DWIDTH 8 0
BBX 8 14 0 -3
BITMAP
00
00
62
72
72
5a
5a
4e
4e
46
46
08
28
38
ENDCHAR
STARTCHAR ch-70
ENCODING 70
SWIDTH 571 0
DWIDTH 8 0
BBX 8 14 0 -3
BITMAP
00
00
00
00
6c
76
66
66
66
66
66
08
28
38
ENDCHAR
STARTCHAR ch-71
ENCODING 71
SWIDTH 571 0
DWIDTH 8 0
BBX 8 14 0 -3
BITMAP
14
08
00
62
72
72
5a
5a
4e
4e
46
00
00
00
ENDCHAR
STARTCHAR ch-72
ENCODING 72
SWIDTH 571 0
DWIDTH 8 0
BBX 8 14 0 -3
BITMAP
28
10
00
00
6c
76
66
66
66
66
66
00
00
00
ENDCHAR
STARTCHAR ch-73
ENCODING 73
SWIDTH 571 0
DWIDTH 8 0
BBX 8 14 0 -3
BITMAP
30
30
10
20
6c
76
66
66
66
66
66
00
00
00
ENDCHAR
STARTCHAR ch-74
ENCODING 74
SWIDTH 571 0
DWIDTH 8 0
BBX 8 14 0 -3
BITMAP
00
00
6c
76
66
66
66
66
66
66
66
06
16
1c
ENDCHAR
STARTCHAR ch-75
ENCODING 75
SWIDTH 571 0
DWIDTH 8 0
BBX 8 14 0 -3
BITMAP
00
00
00
00
6c
76
66
66
66
66
66
06
16
1c
ENDCHAR
STARTCHAR ch-76
ENCODING 76
SWIDTH 571 0
DWIDTH 8 0
BBX 8 14 0 -3
BITMAP
3c
3c
00
3c
24
66
66
66
66
24
3c
00
00
00
ENDCHAR
STARTCHAR ch-77
ENCODING 77
SWIDTH 571 0
DWIDTH 8 0
BBX 8 14 0 -3
BITMAP
3c
3c
00
00
3c
66
66
66
66
66
3c
00
00
00
ENDCHAR
STARTCHAR ch-78
ENCODING 78
SWIDTH 571 0
DWIDTH 8 0
BBX 8 14 0 -3
BITMAP
66
3c
00
3c
24
66
66
66
66
24
3c
00
00
00
ENDCHAR
STARTCHAR ch-79
ENCODING 79
SWIDTH 571 0
DWIDTH 8 0
BBX 8 14 0 -3
BITMAP
66
3c
00
00
3c
66
66
66
66
66
3c
00
00
00
ENDCHAR
STARTCHAR ch-80
ENCODING 80
SWIDTH 571 0
DWIDTH 8 0
BBX 8 14 0 -3
BITMAP
36
6c
00
3c
24
66
66
66
66
24
3c
00
00
00
ENDCHAR
STARTCHAR ch-81
ENCODING 81
SWIDTH 571 0
DWIDTH 8 0
BBX 8 14 0 -3
BITMAP
36
6c
00
00
3c
66
66
66
66
66
3c
00
00
00
ENDCHAR
STARTCHAR ch-82
ENCODING 82
SWIDTH 571 0
DWIDTH 8 0
BBX 8 14 0 -3
BITMAP
00
00
7e
d8
98
98
9e
98
98
d8
7e
00
00
00
ENDCHAR
STARTCHAR ch-83
ENCODING 83
SWIDTH 571 0
DWIDTH 8 0
BBX 8 14 0 -3
BITMAP
00
00
00
00
6e
da
da
de
d8
da
6e
00
00
00
ENDCHAR
STARTCHAR ch-84
ENCODING 84
SWIDTH 571 0
DWIDTH 8 0
BBX 8 14 0 -3
BITMAP
18
30
00
7c
66
64
78
6c
66
66
66
00
00
00
ENDCHAR
STARTCHAR ch-85
ENCODING 85
SWIDTH 571 0
DWIDTH 8 0
BBX 8 14 0 -3
BITMAP
18
30
00
00
76
36
38
30
30
30
7c
00
00
00
ENDCHAR
STARTCHAR ch-86
ENCODING 86
SWIDTH 571 0
DWIDTH 8 0
BBX 8 14 0 -3
BITMAP
00
00
7c
66
66
64
78
6c
66
66
66
08
28
38
ENDCHAR
STARTCHAR ch-87
ENCODING 87
SWIDTH 571 0
DWIDTH 8 0
BBX 8 14 0 -3
BITMAP
00
00
00
00
76
36
38
30
30
30
7c
08
28
38
ENDCHAR
STARTCHAR ch-88
ENCODING 88
SWIDTH 571 0
DWIDTH 8 0
BBX 8 14 0 -3
BITMAP
28
10
00
7c
66
64
78
6c
66
66
66
00
00
00
ENDCHAR
STARTCHAR ch-89
ENCODING 89
SWIDTH 571 0
DWIDTH 8 0
BBX 8 14 0 -3
BITMAP
28
10
00
00
76
36
38
30
30
30
7c
00
00
00
ENDCHAR
STARTCHAR ch-90
ENCODING 90
SWIDTH 571 0
DWIDTH 8 0
BBX 8 14 0 -3
BITMAP
0c
18
00
3c
66
70
3c
0e
06
66
3c
00
00
00
ENDCHAR
STARTCHAR ch-91
ENCODING 91
SWIDTH 571 0
DWIDTH 8 0
BBX 8 14 0 -3
BITMAP
0c
18
00
00
3c
66
60
3c
06
66
3c
00
00
00
ENDCHAR
STARTCHAR ch-92
ENCODING 92
SWIDTH 571 0
DWIDTH 8 0
BBX 8 14 0 -3
BITMAP
18
24
00
3c
66
70
3c
0e
06
66
3c
00
00
00
ENDCHAR
STARTCHAR ch-93
ENCODING 93
SWIDTH 571 0
DWIDTH 8 0
BBX 8 14 0 -3
BITMAP
18
24
00
00
3c
66
60
3c
06
66
3c
00
00
00
ENDCHAR
STARTCHAR ch-94
ENCODING 94
SWIDTH 571 0
DWIDTH 8 0
BBX 8 14 0 -3
BITMAP
00
00
3c
66
60
70
3c
0e
06
66
3c
08
28
38
ENDCHAR
STARTCHAR ch-95
ENCODING 95
SWIDTH 571 0
DWIDTH 8 0
BBX 8 14 0 -3
BITMAP
00
00
00
00
3c
66
60
3c
06
66
3c
08
28
38
ENDCHAR
STARTCHAR ch-96
ENCODING 96
SWIDTH 571 0
DWIDTH 8 0
BBX 8 14 0 -3
BITMAP
28
10
00
3c
66
70
3c
0e
06
66
3c
00
00
00
ENDCHAR
STARTCHAR ch-97
ENCODING 97
SWIDTH 571 0
DWIDTH 8 0
BBX 8 14 0 -3
BITMAP
28
10
00
00
3c
66
60
3c
06
66
3c
00
00
00
ENDCHAR
STARTCHAR ch-98
ENCODING 98
SWIDTH 571 0
DWIDTH 8 0
BBX 8 14 0 -3
BITMAP
00
00
7e
18
18
18
18
18
18
18
18
08
28
38
ENDCHAR
STARTCHAR ch-99
ENCODING 99
SWIDTH 571 0
DWIDTH 8 0
BBX 8 14 0 -3
BITMAP
00
00
10
30
7e
30
30
30
30
30
1e
08
28
38
ENDCHAR
STARTCHAR ch-100
ENCODING 100
SWIDTH 571 0
DWIDTH 8 0
BBX 8 14 0 -3
BITMAP
14
08
00
7e
18
18
18
18
18
18
18
00
00
00
ENDCHAR
STARTCHAR ch-101
ENCODING 101
SWIDTH 571 0
DWIDTH 8 0
BBX 8 14 0 -3
BITMAP
28
10
00
30
7e
30
30
30
30
30
1e
00
00
00
ENDCHAR
STARTCHAR ch-102
ENCODING 102
SWIDTH 571 0
DWIDTH 8 0
BBX 8 14 0 -3
BITMAP
00
00
7e
18
18
18
3c
18
18
18
18
00
00
00
ENDCHAR
STARTCHAR ch-103
ENCODING 103
SWIDTH 571 0
DWIDTH 8 0
BBX 8 14 0 -3
BITMAP
00
00
10
30
7e
30
30
fc
30
30
1e
00
00
00
ENDCHAR
STARTCHAR ch-104
ENCODING 104
SWIDTH 571 0
DWIDTH 8 0
BBX 8 14 0 -3
BITMAP
32
4c
00
62
62
62
62
62
62
34
18
00
00
00
ENDCHAR
STARTCHAR ch-105
ENCODING 105
SWIDTH 571 0
DWIDTH 8 0
BBX 8 14 0 -3
BITMAP
32
4c
00
00
66
66
66
66
66
6e
36
00
00
00
ENDCHAR
STARTCHAR ch-106
ENCODING 106
SWIDTH 571 0
DWIDTH 8 0
BBX 8 14 0 -3
BITMAP
3c
3c
00
62
62
62
62
62
62
34
18
00
00
00
ENDCHAR
STARTCHAR ch-107
ENCODING 107
SWIDTH 571 0
DWIDTH 8 0
BBX 8 14 0 -3
BITMAP
3c
3c
00
00
66
66
66
66
66
6e
36
00
00
00
ENDCHAR
STARTCHAR ch-108
ENCODING 108
SWIDTH 571 0
DWIDTH 8 0
BBX 8 14 0 -3
BITMAP
66
3c
00
62
62
62
62
62
62
34
18
00
00
00
ENDCHAR
STARTCHAR ch-109
ENCODING 109
SWIDTH 571 0
DWIDTH 8 0
BBX 8 14 0 -3
BITMAP
66
3c
00
00
66
66
66
66
66
6e
36
00
00
00
ENDCHAR
STARTCHAR ch-110
ENCODING 110
SWIDTH 571 0
DWIDTH 8 0
BBX 8 14 0 -3
BITMAP
18
24
24
18
62
62
62
62
62
34
18
00
00
00
ENDCHAR
STARTCHAR ch-111
ENCODING 111
SWIDTH 571 0
DWIDTH 8 0
BBX 8 14 0 -3
BITMAP
18
24
24
18
66
66
66
66
66
6e
36
00
00
00
ENDCHAR
STARTCHAR ch-112
ENCODING 112
SWIDTH 571 0
DWIDTH 8 0
BBX 8 14 0 -3
BITMAP
36
6c
00
62
62
62
62
62
62
34
18
00
00
00
ENDCHAR
STARTCHAR ch-113
ENCODING 113
SWIDTH 571 0
DWIDTH 8 0
BBX 8 14 0 -3
BITMAP
36
6c
00
00
66
66
66
66
66
6e
36
00
00
00
ENDCHAR
STARTCHAR ch-114
ENCODING 114
SWIDTH 571 0
DWIDTH 8 0
BBX 8 14 0 -3
BITMAP
00
00
62
62
62
62
62
62
62
34
18
08
0a
0c
ENDCHAR
STARTCHAR ch-115
ENCODING 115
SWIDTH 571 0
DWIDTH 8 0
BBX 8 14 0 -3
BITMAP
00
00
00
00
66
66
66
66
66
6e
36
08
0a
0c
ENDCHAR
STARTCHAR ch-116
ENCODING 116
SWIDTH 571 0
DWIDTH 8 0
BBX 8 14 0 -3
BITMAP
18
24
00
c2
da
da
da
6c
6c
6c
6c
00
00
00
ENDCHAR
STARTCHAR ch-117
ENCODING 117
SWIDTH 571 0
DWIDTH 8 0
BBX 8 14 0 -3
BITMAP
18
24
00
00
c2
da
da
da
6c
6c
6c
00
00
00
ENDCHAR
STARTCHAR ch-118
ENCODING 118
SWIDTH 571 0
DWIDTH 8 0
BBX 8 14 0 -3
BITMAP
18
24
00
66
62
66
3c
3c
18
18
18
00
00
00
ENDCHAR
STARTCHAR ch-119
ENCODING 119
SWIDTH 571 0
DWIDTH 8 0
BBX 8 14 0 -3
BITMAP
18
24
00
00
66
62
62
34
34
18
18
10
30
60
ENDCHAR
STARTCHAR ch-120
ENCODING 120
SWIDTH 571 0
DWIDTH 8 0
BBX 8 14 0 -3
BITMAP
66
66
00
66
62
66
3c
3c
18
18
18
00
00
00
ENDCHAR
STARTCHAR ch-121
ENCODING 121
SWIDTH 571 0
DWIDTH 8 0
BBX 8 14 0 -3
BITMAP
0c
18
00
7e
06
0c
18
30
20
60
7e
00
00
00
ENDCHAR
STARTCHAR ch-122
ENCODING 122
SWIDTH 571 0
DWIDTH 8 0
BBX 8 14 0 -3
BITMAP
0c
18
00
00
7e
06
0c
18
30
60
7e
00
00
00
ENDCHAR
STARTCHAR ch-123
ENCODING 123
SWIDTH 571 0
DWIDTH 8 0
BBX 8 14 0 -3
BITMAP
18
18
00
7e
06
0c
18
30
20
60
7e
00
00
00
ENDCHAR
STARTCHAR ch-124
ENCODING 124
SWIDTH 571 0
DWIDTH 8 0
BBX 8 14 0 -3
BITMAP
18
18
00
00
7e
06
0c
18
30
60
7e
00
00
00
ENDCHAR
STARTCHAR ch-125
ENCODING 125
SWIDTH 571 0
DWIDTH 8 0
BBX 8 14 0 -3
BITMAP
28
10
00
7e
06
0c
18
30
20
60
7e
00
00
00
ENDCHAR
STARTCHAR ch-126
ENCODING 126
SWIDTH 571 0
DWIDTH 8 0
BBX 8 14 0 -3
BITMAP
14
08
00
00
7e
06
0c
18
30
60
7e
00
00
00
ENDCHAR
ENDFONT
